<svg width="105" height="20" viewBox="0 0 105 20" fill="none" xmlns="http://www.w3.org/2000/svg">
<mask id="mask0_14_850" style="mask-type:alpha" maskUnits="userSpaceOnUse" x="0" y="0" width="105" height="20">
<path d="M12.235 9.1328H7.13677V12.2943H12.235C15.012 12.2943 15.012 16.4756 12.235 16.4756H8.94654C5.73434 16.4756 3.16012 13.9002 3.16012 10.7145C3.16012 7.52878 5.73434 4.92551 8.94654 4.92551H15.3951V1.76399H8.94654C4.00269 1.76399 0 5.76659 0 10.7145C0 15.6624 3.97665 19.6129 8.89632 19.6389H12.235C15.1403 19.6389 17.4857 17.2925 17.4857 14.3859C17.4857 11.4793 15.1403 9.1328 12.235 9.1328ZM27.6543 1.73794H21.3843V4.89946H27.6543C28.216 4.89946 31.0692 4.72082 31.0692 6.71002C31.0692 9.15885 19.6266 8.23961 19.6266 14.2333C19.6266 19.384 23.5251 19.6389 27.5018 19.6389C31.4784 19.6389 34.2312 17.7 34.2312 13.9523V7.27199C34.2312 4.21095 33.6193 1.73794 27.6543 1.73794ZM26.3542 16.4756C22.9653 16.4756 22.7867 15.1767 22.7867 14.2333C22.7867 12.3464 27.6803 11.9631 31.0692 10.6121C31.0692 15.3293 31.7574 16.4756 26.3542 16.4756ZM42.0543 16.4756C40.8825 16.4756 39.9395 15.5321 39.9395 14.3598V1.76399H36.7794V14.3598C36.7794 17.2664 39.149 19.6389 42.0543 19.6389H48.6814V16.4756H42.0543ZM51.2296 1.76399V19.6389H54.3897V1.76399H51.2296ZM62.2147 16.4756C61.0429 16.4756 60.0999 15.5321 60.0999 14.3598V1.76399H56.9398V14.3598C56.9398 17.2664 59.3094 19.6389 62.2147 19.6389H68.8418V16.4756H62.2147ZM79.0625 4.89946H85.511V1.73794H79.0625C74.1186 1.73794 70.1159 5.74054 70.1159 10.6884C70.1159 15.6363 74.0926 19.5868 79.0123 19.6389H85.511V16.4756H79.0625C75.8763 16.4756 73.2761 13.876 73.2761 10.6884C73.2761 7.50087 75.8763 4.89946 79.0625 4.89946ZM77.1262 9.10675V12.2701H83.0633V9.10675H77.1262ZM98.3691 5.7424L98.2706 4.64266C98.1143 2.89164 97.2457 1.28204 95.8693 0.189742V0.182299C95.8693 0.182299 95.8656 0.184159 95.8637 0.18602C95.8619 0.18602 95.86 0.182299 95.8582 0.182299V0.189742C94.4818 1.28204 93.6132 2.89164 93.4569 4.64266L93.3565 5.76659C92.6329 6.44951 92.181 7.42271 92.181 8.50571C92.181 8.87043 92.233 9.22584 92.3298 9.55893C93.2914 8.87601 94.5283 8.46477 95.8749 8.46477C97.2215 8.46477 98.4584 8.87601 99.4219 9.55893C99.5186 9.22584 99.5707 8.87043 99.5707 8.50571C99.5707 7.41155 99.1076 6.42532 98.3691 5.7424ZM95.8749 5.09856C95.2964 5.09856 94.8277 4.62964 94.8277 4.04906C94.8277 3.46849 95.2964 3.00143 95.8749 3.00143C96.4534 3.00143 96.9239 3.47035 96.9239 4.04906C96.9239 4.62778 96.4534 5.09856 95.8749 5.09856ZM97.0374 10.3888C96.9816 9.77478 96.7324 9.38959 96.4831 9.15141C96.1669 8.85182 95.6684 8.85182 95.3522 9.15141C95.103 9.38959 94.8556 9.77478 94.7998 10.3888C94.7682 10.7275 94.7998 11.0662 94.8817 11.3955C95.0398 12.0264 95.4229 13.4331 95.8823 14.2631C95.8935 14.2854 95.9065 14.3059 95.9177 14.3263C95.9307 14.3059 95.9419 14.2854 95.953 14.2631C96.4143 13.4331 96.7956 12.0264 96.9537 11.3955C97.0374 11.0662 97.0672 10.7275 97.0374 10.3888ZM105 10.6884C105 15.7108 100.897 19.8176 95.8749 19.8176C90.8529 19.8176 86.7517 15.7108 86.7517 10.6884C86.7517 6.63001 89.3854 3.20053 93.0384 2.00775C92.6701 2.82837 92.4376 3.70854 92.3558 4.61661L92.2628 5.67355C92.0136 5.93407 91.7978 6.22249 91.6118 6.52766C90.5628 7.59949 89.9118 9.06023 89.9118 10.6624C89.9118 12.6609 90.9236 14.4566 92.4562 15.5507C93.3751 14.3617 93.8791 12.8842 93.8791 11.3807V11.0867H93.9126C93.9331 11.2634 93.9647 11.4383 94.0093 11.6151C94.1674 12.2497 94.4669 13.3345 94.8501 14.1979C94.5859 14.9292 94.2195 15.6233 93.7601 16.256C94.4204 16.5128 95.1328 16.6542 95.8749 16.6542C96.617 16.6542 97.3796 16.5035 98.0585 16.2299C97.6066 15.6047 97.2476 14.9199 96.9872 14.1979C97.3685 13.3345 97.6679 12.2497 97.8279 11.6151C97.8707 11.4383 97.9023 11.2634 97.9227 11.0867H97.9562V11.3807C97.9562 12.8674 98.451 14.3282 99.3512 15.5098C100.852 14.4119 101.84 12.6348 101.84 10.6624C101.84 9.06209 101.189 7.60135 100.142 6.52953C99.9464 6.20947 99.7195 5.91174 99.4572 5.64006L99.3661 4.61661C99.2861 3.70667 99.0499 2.82279 98.6816 2.00217C102.34 3.18751 105 6.62257 105 10.6884Z" fill="#FCF0F8"/>
</mask>
<g mask="url(#mask0_14_850)">
<rect y="0.182299" width="105.279" height="19.6353" fill="white"/>
</g>
</svg>
