<svg width="803" height="162" fill="none" xmlns="http://www.w3.org/2000/svg"><path d="M17.318 32v-9.315c0-5.13 4.14-9.27 9.27-9.27h7.515c4.86 0 4.86-7.425 0-7.425H17.318V.41h16.785c5.13 0 9.27 4.14 9.27 9.27a9.26 9.26 0 0 1-8.19 9.225v.09h-8.595a3.678 3.678 0 0 0-3.69 3.69V32h-5.58zM70.405 9.68V32h-5.58V9.68c0-2.34-.36-3.87-1.89-3.87-2.565 0-4.86 3.96-5.895 5.625L43.72 32h-6.66l13.32-20.565C54.97 4.325 57.94.23 64.06.23c3.78 0 6.345 3.51 6.345 9.45zm25.237 8.64 7.29 13.68h-6.3l-3.105-5.94c-1.71-2.925-3.375-7.065-5.22-7.065h-3.69a3.707 3.707 0 0 0-3.69 3.69V32h-5.58v-9.315c0-5.13 4.14-9.27 9.27-9.27h7.515c4.905 0 4.905-7.425 0-7.425H75.347V.41h16.785c10.17 0 12.87 14.085 3.51 17.91zM115.895 32V5.99h-10.26V.41h26.145v5.58h-10.305V32h-5.58zM167.27.41v22.275c0 6.975-3.51 9.315-5.67 9.315-4.41 0-6.03-1.755-9.9-9.9l-4.5-9.45c-1.35-2.88-5.13-11.61-4.905-2.97V32h-5.58V9.68c0-6.975 3.465-9.27 5.625-9.27 4.455 0 6.03 1.71 9.9 9.855l4.68 9.81c1.62 3.6 4.995 10.665 4.77 2.61V.41h5.58zM199.414 32h-11.475c-8.685-.09-15.705-7.11-15.705-15.795 0-8.73 7.065-15.795 15.795-15.795h11.385v5.58h-11.385c-5.625 0-10.215 4.545-10.215 10.215 0 5.625 4.59 10.215 10.215 10.215h11.385V32zm-4.32-13.005h-10.485v-5.58h10.485v5.58zm29.569-.675 7.29 13.68h-6.3l-3.105-5.94c-1.71-2.925-3.375-7.065-5.22-7.065h-3.69a3.707 3.707 0 0 0-3.69 3.69V32h-5.58v-9.315c0-5.13 4.14-9.27 9.27-9.27h7.515c4.905 0 4.905-7.425 0-7.425h-16.785V.41h16.785c10.17 0 12.87 14.085 3.51 17.91zm51.427-8.865v13.68s-.225 3.375.54 3.375c.63 0 1.08-1.53 2.34-4.77L287.475.5h5.985L285 21.74c-2.52 6.885-4.725 10.35-9.18 10.35-3.15 0-5.31-3.24-5.31-8.955V9.455s.18-3.375-.585-3.375c-.54 0-.945 1.08-1.845 3.375h.045L263.22 21.74c-2.52 6.885-4.725 10.35-9.18 10.35-3.15 0-5.31-3.24-5.31-8.955V.5h5.58v22.635s-.225 3.375.54 3.375c.63 0 1.08-1.53 2.34-4.77l4.41-11.07C264.12 3.92 266.325.5 270.735.5c3.15 0 5.355 3.195 5.355 8.955zM298.399 32V.455h5.58V32h-5.58zm20.773 0V5.99h-10.26V.41h26.145v5.58h-10.305V32h-5.58zm42.6 0V18.86h-16.2V32h-5.58V.455h5.58V13.28h16.2V.455h5.58V32h-5.58zm43.962-12.96h-9v-5.58h9c5.13 0 9.27 4.14 9.27 9.27s-4.14 9.27-9.27 9.27h-5.895c-8.685-.045-15.705-7.065-15.705-15.75 0-8.73 7.065-15.795 15.795-15.795h11.385v5.58h-11.385a10.179 10.179 0 0 0-10.215 10.215c0 5.625 4.545 10.17 10.215 10.17h5.805c4.905 0 4.905-7.38 0-7.38zm43.089-9.36V32h-5.58V9.68c0-2.34-.36-3.87-1.89-3.87-2.565 0-4.86 3.96-5.895 5.625L422.138 32h-6.66l13.32-20.565c4.59-7.11 7.56-11.205 13.68-11.205 3.78 0 6.345 3.51 6.345 9.45zm14.257 16.74h11.7V32h-11.7c-5.13 0-9.315-4.185-9.315-9.315V.455h5.58v22.23a3.726 3.726 0 0 0 3.735 3.735zM479.747 32V.455h5.58V32h-5.58zm19.829-5.58h11.7V32h-11.7c-5.13 0-9.315-4.185-9.315-9.315V.455h5.58v22.23a3.726 3.726 0 0 0 3.735 3.735zM541.182 32h-11.475c-8.685-.09-15.705-7.11-15.705-15.795 0-8.73 7.065-15.795 15.795-15.795h11.385v5.58h-11.385c-5.625 0-10.215 4.545-10.215 10.215 0 5.625 4.59 10.215 10.215 10.215h11.385V32zm-4.32-13.005h-10.485v-5.58h10.485v5.58zm23.143-18.9c8.865 0 16.11 7.2 16.11 16.11 0 8.865-7.245 16.11-16.11 16.11-8.91 0-16.11-7.245-16.11-16.11 0-8.91 7.2-16.11 16.11-16.11zm0 26.64c5.76 0 10.53-4.815 10.53-10.575 0-5.76-4.77-10.485-10.53-10.485s-10.53 4.725-10.53 10.485 4.77 10.575 10.53 10.575zM620.095 32H608.62c-8.685-.09-15.705-7.11-15.705-15.795 0-8.73 7.065-15.795 15.75-15.795h11.43v5.58h-11.43c-5.625 0-10.17 4.545-10.17 10.215 0 5.625 4.545 10.215 10.17 10.215h11.43V32zm38.3-22.32V32h-5.58V9.68c0-2.34-.36-3.87-1.89-3.87-2.565 0-4.86 3.96-5.895 5.625L631.71 32h-6.66l13.32-20.565C642.96 4.325 645.93.23 652.05.23c3.78 0 6.345 3.51 6.345 9.45zM663.337 32v-9.315c0-5.13 4.14-9.27 9.27-9.27h7.515c4.86 0 4.86-7.425 0-7.425h-16.785V.41h16.785c5.13 0 9.27 4.14 9.27 9.27a9.26 9.26 0 0 1-8.19 9.225v.09h-8.595a3.678 3.678 0 0 0-3.69 3.69V32h-5.58zm30.992 0V.455h5.58V32h-5.58zm20.773 0V5.99h-10.26V.41h26.145v5.58h-10.305V32h-5.58zm45.156-22.32V32h-5.58V9.68c0-2.34-.36-3.87-1.89-3.87-2.565 0-4.86 3.96-5.895 5.625L733.573 32h-6.66l13.32-20.565c4.59-7.11 7.56-11.205 13.68-11.205 3.78 0 6.345 3.51 6.345 9.45zm14.257 16.74h11.7V32h-11.7c-5.13 0-9.315-4.185-9.315-9.315V.455h5.58v22.23a3.726 3.726 0 0 0 3.735 3.735zM34.029 72.68V95h-5.58V72.68c0-2.34-.36-3.87-1.89-3.87-2.565 0-4.86 3.96-5.895 5.625L7.344 95H.684l13.32-20.565c4.59-7.11 7.56-11.205 13.68-11.205 3.78 0 6.345 3.51 6.345 9.45zm35.497-9.27v22.275c0 6.975-3.51 9.315-5.67 9.315-4.41 0-6.03-1.755-9.9-9.9l-4.5-9.45c-1.35-2.88-5.13-11.61-4.905-2.97V95h-5.58V72.68c0-6.975 3.465-9.27 5.625-9.27 4.455 0 6.03 1.71 9.9 9.855l4.68 9.81c1.62 3.6 4.995 10.665 4.77 2.61V63.41h5.58zM86.01 95H74.49v-5.58h11.385c5.67 0 10.215-4.59 10.215-10.215 0-5.67-4.545-10.215-10.215-10.215H74.49v-5.58h11.385c8.73 0 15.795 7.065 15.795 15.795 0 8.685-7.02 15.705-15.66 15.795zm59.626 0h-11.475c-8.685-.09-15.705-7.11-15.705-15.795 0-8.73 7.065-15.795 15.795-15.795h11.385v5.58h-11.385c-5.625 0-10.215 4.545-10.215 10.215 0 5.625 4.59 10.215 10.215 10.215h11.385V95zm-4.32-13.005h-10.485v-5.58h10.485v5.58zm18.14-2.745c-2.16-2.385-3.465-5.58-4.41-7.29l-4.455-8.505h6.3l3.105 5.895c1.665 2.925 3.375 7.11 5.22 7.11 4.455 0 3.645.54 7.83-7.11l3.105-5.895h6.3l-4.455 8.505c-.945 1.71-2.25 4.905-4.41 7.29 2.16 2.34 3.465 5.535 4.41 7.245L182.451 95h-6.3l-3.105-5.895c-1.665-2.925-3.375-7.065-5.22-7.065-4.455 0-3.645-.54-7.83 7.065L156.891 95h-6.3l4.455-8.505c.945-1.71 2.25-4.905 4.41-7.245zM187.383 95v-9.315c0-5.13 4.14-9.27 9.27-9.27h7.515c4.86 0 4.86-7.425 0-7.425h-16.785v-5.58h16.785c5.13 0 9.27 4.14 9.27 9.27a9.26 9.26 0 0 1-8.19 9.225v.09h-8.595a3.678 3.678 0 0 0-3.69 3.69V95h-5.58zm55.931 0h-11.475c-8.685-.09-15.705-7.11-15.705-15.795 0-8.73 7.065-15.795 15.795-15.795h11.385v5.58h-11.385c-5.625 0-10.215 4.545-10.215 10.215 0 5.625 4.59 10.215 10.215 10.215h11.385V95zm-4.32-13.005h-10.485v-5.58h10.485v5.58zm29.57-.675 7.29 13.68h-6.3l-3.105-5.94c-1.71-2.925-3.375-7.065-5.22-7.065h-3.69a3.707 3.707 0 0 0-3.69 3.69V95h-5.58v-9.315c0-5.13 4.14-9.27 9.27-9.27h7.515c4.905 0 4.905-7.425 0-7.425h-16.785v-5.58h16.785c10.17 0 12.87 14.085 3.51 17.91zM280.799 95V63.455h5.58V95h-5.58zm37.693 0h-11.475c-8.685-.09-15.705-7.11-15.705-15.795 0-8.73 7.065-15.795 15.795-15.795h11.385v5.58h-11.385c-5.625 0-10.215 4.545-10.215 10.215 0 5.625 4.59 10.215 10.215 10.215h11.385V95zm-4.32-13.005h-10.485v-5.58h10.485v5.58zm39.83-18.585v22.275c0 6.975-3.51 9.315-5.67 9.315-4.41 0-6.03-1.755-9.9-9.9l-4.5-9.45c-1.35-2.88-5.13-11.61-4.905-2.97V95h-5.58V72.68c0-6.975 3.465-9.27 5.625-9.27 4.455 0 6.03 1.71 9.9 9.855l4.68 9.81c1.62 3.6 4.995 10.665 4.77 2.61V63.41h5.58zM386.145 95H374.67c-8.685-.09-15.705-7.11-15.705-15.795 0-8.73 7.065-15.795 15.75-15.795h11.43v5.58h-11.43c-5.625 0-10.17 4.545-10.17 10.215 0 5.625 4.545 10.215 10.17 10.215h11.43V95zm29.894 0h-11.475c-8.685-.09-15.705-7.11-15.705-15.795 0-8.73 7.065-15.795 15.795-15.795h11.385v5.58h-11.385c-5.625 0-10.215 4.545-10.215 10.215 0 5.625 4.59 10.215 10.215 10.215h11.385V95zm-4.32-13.005h-10.485v-5.58h10.485v5.58zM443.085 95V68.99h-10.26v-5.58h26.145v5.58h-10.305V95h-5.58zm42.6 0V81.86h-16.2V95h-5.58V63.455h5.58V76.28h16.2V63.455h5.58V95h-5.58zm37.71 0H511.92c-8.685-.09-15.705-7.11-15.705-15.795 0-8.73 7.065-15.795 15.795-15.795h11.385v5.58H512.01c-5.625 0-10.215 4.545-10.215 10.215 0 5.625 4.59 10.215 10.215 10.215h11.385V95zm-4.32-13.005H508.59v-5.58h10.485v5.58zm26.687-2.79V95h-5.58V79.205c0-8.73 7.02-15.795 15.93-15.795h11.385v5.58h-11.52a10.179 10.179 0 0 0-10.215 10.215zm17.415 2.79h-10.485v-5.58h10.485v5.58zm21.961 13.095c-7.02 0-12.69-5.67-12.69-12.69V63.5h5.58v18.9c0 3.915 3.195 7.11 7.11 7.11 3.915 0 7.065-3.195 7.065-7.11V63.5h5.58v18.9c0 7.02-5.67 12.69-12.645 12.69zm27.859-.09V68.99h-10.26v-5.58h26.145v5.58h-10.305V95h-5.58zm33.51.09c-7.02 0-12.69-5.67-12.69-12.69V63.5h5.58v18.9c0 3.915 3.195 7.11 7.11 7.11 3.915 0 7.065-3.195 7.065-7.11V63.5h5.58v18.9c0 7.02-5.67 12.69-12.645 12.69zm37.894-13.77 7.29 13.68h-6.3l-3.105-5.94c-1.71-2.925-3.375-7.065-5.22-7.065h-3.69a3.707 3.707 0 0 0-3.69 3.69V95h-5.58v-9.315c0-5.13 4.14-9.27 9.27-9.27h7.515c4.905 0 4.905-7.425 0-7.425h-16.785v-5.58h16.785c10.17 0 12.87 14.085 3.51 17.91zM721.575 95H710.1c-8.685-.09-15.705-7.11-15.705-15.795 0-8.73 7.065-15.795 15.795-15.795h11.385v5.58H710.19c-5.625 0-10.215 4.545-10.215 10.215 0 5.625 4.59 10.215 10.215 10.215h11.385V95zm-4.32-13.005H706.77v-5.58h10.485v5.58zm37.216-18.9c8.865 0 16.11 7.2 16.11 16.11 0 8.865-7.245 16.11-16.11 16.11-8.91 0-16.11-7.245-16.11-16.11 0-8.91 7.2-16.11 16.11-16.11zm0 26.64c5.76 0 10.53-4.815 10.53-10.575 0-5.76-4.77-10.485-10.53-10.485s-10.53 4.725-10.53 10.485 4.77 10.575 10.53 10.575zm26.658-10.53V95h-5.58V79.205c0-8.73 7.02-15.795 15.93-15.795h11.385v5.58h-11.52a10.179 10.179 0 0 0-10.215 10.215zm17.415 2.79h-10.485v-5.58h10.485v5.58zM48.639 158H37.164c-8.685-.09-15.705-7.11-15.705-15.795 0-8.73 7.065-15.795 15.75-15.795h11.43v5.58H37.21c-5.625 0-10.17 4.545-10.17 10.215 0 5.625 4.545 10.215 10.17 10.215h11.43V158zm25.25-13.68 7.29 13.68h-6.3l-3.105-5.94c-1.71-2.925-3.375-7.065-5.22-7.065h-3.69a3.707 3.707 0 0 0-3.69 3.69V158h-5.58v-9.315c0-5.13 4.14-9.27 9.27-9.27h7.515c4.905 0 4.905-7.425 0-7.425H53.594v-5.58h16.785c10.17 0 12.87 14.085 3.51 17.91zM94.78 158v-13.14c-4.905-1.035-7.245-7.29-8.685-9.9l-4.455-8.505h6.3l3.105 5.895c1.665 2.925 3.375 7.11 5.22 7.11 4.275 0 3.645.63 7.83-7.11l3.105-5.895h6.3l-4.455 8.505c-1.485 2.61-3.78 8.865-8.685 9.9V158h-5.58zm23.653 0v-9.315c0-5.13 4.14-9.27 9.27-9.27h7.515c4.86 0 4.86-7.425 0-7.425h-16.785v-5.58h16.785c5.13 0 9.27 4.14 9.27 9.27a9.26 9.26 0 0 1-8.19 9.225v.09h-8.595a3.678 3.678 0 0 0-3.69 3.69V158h-5.58zm40.109 0v-26.01h-10.26v-5.58h26.145v5.58h-10.305V158h-5.58zm33.547-31.905c8.865 0 16.11 7.2 16.11 16.11 0 8.865-7.245 16.11-16.11 16.11-8.91 0-16.11-7.245-16.11-16.11 0-8.91 7.2-16.11 16.11-16.11zm0 26.64c5.76 0 10.53-4.815 10.53-10.575 0-5.76-4.77-10.485-10.53-10.485s-10.53 4.725-10.53 10.485 4.77 10.575 10.53 10.575zM239.205 158H227.73c-8.685-.09-15.705-7.11-15.705-15.795 0-8.73 7.065-15.795 15.75-15.795h11.43v5.58h-11.43c-5.625 0-10.17 4.545-10.17 10.215 0 5.625 4.545 10.215 10.17 10.215h11.43V158zm17.645.09c-7.02 0-12.69-5.67-12.69-12.69v-18.9h5.58v18.9c0 3.915 3.195 7.11 7.11 7.11 3.915 0 7.065-3.195 7.065-7.11v-18.9h5.58v18.9c0 7.02-5.67 12.69-12.645 12.69zm37.894-13.77 7.29 13.68h-6.3l-3.105-5.94c-1.71-2.925-3.375-7.065-5.22-7.065h-3.69a3.707 3.707 0 0 0-3.69 3.69V158h-5.58v-9.315c0-5.13 4.14-9.27 9.27-9.27h7.515c4.905 0 4.905-7.425 0-7.425h-16.785v-5.58h16.785c10.17 0 12.87 14.085 3.51 17.91zm32.53 0 7.29 13.68h-6.3l-3.105-5.94c-1.71-2.925-3.375-7.065-5.22-7.065h-3.69a3.707 3.707 0 0 0-3.69 3.69V158h-5.58v-9.315c0-5.13 4.14-9.27 9.27-9.27h7.515c4.905 0 4.905-7.425 0-7.425h-16.785v-5.58h16.785c10.17 0 12.87 14.085 3.51 17.91zM364.448 158h-11.475c-8.685-.09-15.705-7.11-15.705-15.795 0-8.73 7.065-15.795 15.795-15.795h11.385v5.58h-11.385c-5.625 0-10.215 4.545-10.215 10.215 0 5.625 4.59 10.215 10.215 10.215h11.385V158zm-4.32-13.005h-10.485v-5.58h10.485v5.58zm39.829-18.585v22.275c0 6.975-3.51 9.315-5.67 9.315-4.41 0-6.03-1.755-9.9-9.9l-4.5-9.45c-1.35-2.88-5.13-11.61-4.905-2.97V158h-5.58v-22.32c0-6.975 3.465-9.27 5.625-9.27 4.455 0 6.03 1.71 9.9 9.855l4.68 9.81c1.62 3.6 4.995 10.665 4.77 2.61V126.41h5.58zM432.101 158h-11.475c-8.685-.09-15.705-7.11-15.705-15.795 0-8.73 7.065-15.795 15.75-15.795h11.43v5.58h-11.43c-5.625 0-10.17 4.545-10.17 10.215 0 5.625 4.545 10.215 10.17 10.215h11.43V158zm18.094 0v-13.14c-4.905-1.035-7.245-7.29-8.685-9.9l-4.455-8.505h6.3l3.105 5.895c1.665 2.925 3.375 7.11 5.22 7.11 4.275 0 3.645.63 7.83-7.11l3.105-5.895h6.3l-4.455 8.505c-1.485 2.61-3.78 8.865-8.685 9.9V158h-5.58zm44.8-5.58h11.7V158h-11.7c-5.13 0-9.315-4.185-9.315-9.315v-22.23h5.58v22.23a3.726 3.726 0 0 0 3.735 3.735zm16.667 5.58v-31.545h5.58V158h-5.58zm26.623-31.905c15.705 0 22.05 20.25 9.27 29.25l3.465 6.21h-6.39l-2.115-3.825c-10.215 2.79-20.34-4.86-20.34-15.525 0-8.91 7.2-16.11 16.11-16.11zm0 26.64c.45 0 .945-.045 1.395-.09l-4.095-7.425h6.345l2.88 5.175c7.875-6.345 3.24-18.72-6.525-18.72-5.76 0-10.53 4.725-10.53 10.485s4.77 10.575 10.53 10.575zm32.626 5.355c-7.02 0-12.69-5.67-12.69-12.69v-18.9h5.58v18.9c0 3.915 3.195 7.11 7.11 7.11 3.915 0 7.065-3.195 7.065-7.11v-18.9h5.58v18.9c0 7.02-5.67 12.69-12.645 12.69zm17.599-.09v-31.545h5.58V158h-5.58zm22.034 0h-11.52v-5.58h11.385c5.67 0 10.215-4.59 10.215-10.215 0-5.67-4.545-10.215-10.215-10.215h-11.385v-5.58h11.385c8.73 0 15.795 7.065 15.795 15.795 0 8.685-7.02 15.705-15.66 15.795zm48.334-22.32V158h-5.58v-22.32c0-2.34-.36-3.87-1.89-3.87-2.565 0-4.86 3.96-5.895 5.625L632.193 158h-6.66l13.32-20.565c4.59-7.11 7.56-11.205 13.68-11.205 3.78 0 6.345 3.51 6.345 9.45zM674.08 158v-26.01h-10.26v-5.58h26.145v5.58H679.66V158h-5.58zm20.82 0v-31.545h5.58V158h-5.58zm25.481-31.905c8.865 0 16.11 7.2 16.11 16.11 0 8.865-7.245 16.11-16.11 16.11-8.91 0-16.11-7.245-16.11-16.11 0-8.91 7.2-16.11 16.11-16.11zm0 26.64c5.76 0 10.53-4.815 10.53-10.575 0-5.76-4.77-10.485-10.53-10.485s-10.53 4.725-10.53 10.485 4.77 10.575 10.53 10.575zm51.633-26.325v22.275c0 6.975-3.51 9.315-5.67 9.315-4.41 0-6.03-1.755-9.9-9.9l-4.5-9.45c-1.35-2.88-5.13-11.61-4.905-2.97V158h-5.58v-22.32c0-6.975 3.465-9.27 5.625-9.27 4.455 0 6.03 1.71 9.9 9.855l4.68 9.81c1.62 3.6 4.995 10.665 4.77 2.61V126.41h5.58zm4.963 28.845c0-3.69 5.58-3.69 5.58 0 0 3.645-5.58 3.69-5.58 0z" fill="#fff"/><path d="M17.318 32v-9.315c0-5.13 4.14-9.27 9.27-9.27h7.515c4.86 0 4.86-7.425 0-7.425H17.318V.41h16.785c5.13 0 9.27 4.14 9.27 9.27a9.26 9.26 0 0 1-8.19 9.225v.09h-8.595a3.678 3.678 0 0 0-3.69 3.69V32h-5.58zM70.405 9.68V32h-5.58V9.68c0-2.34-.36-3.87-1.89-3.87-2.565 0-4.86 3.96-5.895 5.625L43.72 32h-6.66l13.32-20.565C54.97 4.325 57.94.23 64.06.23c3.78 0 6.345 3.51 6.345 9.45zm25.237 8.64 7.29 13.68h-6.3l-3.105-5.94c-1.71-2.925-3.375-7.065-5.22-7.065h-3.69a3.707 3.707 0 0 0-3.69 3.69V32h-5.58v-9.315c0-5.13 4.14-9.27 9.27-9.27h7.515c4.905 0 4.905-7.425 0-7.425H75.347V.41h16.785c10.17 0 12.87 14.085 3.51 17.91zM115.895 32V5.99h-10.26V.41h26.145v5.58h-10.305V32h-5.58zM167.27.41v22.275c0 6.975-3.51 9.315-5.67 9.315-4.41 0-6.03-1.755-9.9-9.9l-4.5-9.45c-1.35-2.88-5.13-11.61-4.905-2.97V32h-5.58V9.68c0-6.975 3.465-9.27 5.625-9.27 4.455 0 6.03 1.71 9.9 9.855l4.68 9.81c1.62 3.6 4.995 10.665 4.77 2.61V.41h5.58zM199.414 32h-11.475c-8.685-.09-15.705-7.11-15.705-15.795 0-8.73 7.065-15.795 15.795-15.795h11.385v5.58h-11.385c-5.625 0-10.215 4.545-10.215 10.215 0 5.625 4.59 10.215 10.215 10.215h11.385V32zm-4.32-13.005h-10.485v-5.58h10.485v5.58zm29.569-.675 7.29 13.68h-6.3l-3.105-5.94c-1.71-2.925-3.375-7.065-5.22-7.065h-3.69a3.707 3.707 0 0 0-3.69 3.69V32h-5.58v-9.315c0-5.13 4.14-9.27 9.27-9.27h7.515c4.905 0 4.905-7.425 0-7.425h-16.785V.41h16.785c10.17 0 12.87 14.085 3.51 17.91zm51.427-8.865v13.68s-.225 3.375.54 3.375c.63 0 1.08-1.53 2.34-4.77L287.475.5h5.985L285 21.74c-2.52 6.885-4.725 10.35-9.18 10.35-3.15 0-5.31-3.24-5.31-8.955V9.455s.18-3.375-.585-3.375c-.54 0-.945 1.08-1.845 3.375h.045L263.22 21.74c-2.52 6.885-4.725 10.35-9.18 10.35-3.15 0-5.31-3.24-5.31-8.955V.5h5.58v22.635s-.225 3.375.54 3.375c.63 0 1.08-1.53 2.34-4.77l4.41-11.07C264.12 3.92 266.325.5 270.735.5c3.15 0 5.355 3.195 5.355 8.955zM298.399 32V.455h5.58V32h-5.58zm20.773 0V5.99h-10.26V.41h26.145v5.58h-10.305V32h-5.58zm42.6 0V18.86h-16.2V32h-5.58V.455h5.58V13.28h16.2V.455h5.58V32h-5.58zm43.962-12.96h-9v-5.58h9c5.13 0 9.27 4.14 9.27 9.27s-4.14 9.27-9.27 9.27h-5.895c-8.685-.045-15.705-7.065-15.705-15.75 0-8.73 7.065-15.795 15.795-15.795h11.385v5.58h-11.385a10.179 10.179 0 0 0-10.215 10.215c0 5.625 4.545 10.17 10.215 10.17h5.805c4.905 0 4.905-7.38 0-7.38zm43.089-9.36V32h-5.58V9.68c0-2.34-.36-3.87-1.89-3.87-2.565 0-4.86 3.96-5.895 5.625L422.138 32h-6.66l13.32-20.565c4.59-7.11 7.56-11.205 13.68-11.205 3.78 0 6.345 3.51 6.345 9.45zm14.257 16.74h11.7V32h-11.7c-5.13 0-9.315-4.185-9.315-9.315V.455h5.58v22.23a3.726 3.726 0 0 0 3.735 3.735zM479.747 32V.455h5.58V32h-5.58zm19.829-5.58h11.7V32h-11.7c-5.13 0-9.315-4.185-9.315-9.315V.455h5.58v22.23a3.726 3.726 0 0 0 3.735 3.735zM541.182 32h-11.475c-8.685-.09-15.705-7.11-15.705-15.795 0-8.73 7.065-15.795 15.795-15.795h11.385v5.58h-11.385c-5.625 0-10.215 4.545-10.215 10.215 0 5.625 4.59 10.215 10.215 10.215h11.385V32zm-4.32-13.005h-10.485v-5.58h10.485v5.58zm23.143-18.9c8.865 0 16.11 7.2 16.11 16.11 0 8.865-7.245 16.11-16.11 16.11-8.91 0-16.11-7.245-16.11-16.11 0-8.91 7.2-16.11 16.11-16.11zm0 26.64c5.76 0 10.53-4.815 10.53-10.575 0-5.76-4.77-10.485-10.53-10.485s-10.53 4.725-10.53 10.485 4.77 10.575 10.53 10.575zM620.095 32H608.62c-8.685-.09-15.705-7.11-15.705-15.795 0-8.73 7.065-15.795 15.75-15.795h11.43v5.58h-11.43c-5.625 0-10.17 4.545-10.17 10.215 0 5.625 4.545 10.215 10.17 10.215h11.43V32zm38.3-22.32V32h-5.58V9.68c0-2.34-.36-3.87-1.89-3.87-2.565 0-4.86 3.96-5.895 5.625L631.71 32h-6.66l13.32-20.565C642.96 4.325 645.93.23 652.05.23c3.78 0 6.345 3.51 6.345 9.45zM663.337 32v-9.315c0-5.13 4.14-9.27 9.27-9.27h7.515c4.86 0 4.86-7.425 0-7.425h-16.785V.41h16.785c5.13 0 9.27 4.14 9.27 9.27a9.26 9.26 0 0 1-8.19 9.225v.09h-8.595a3.678 3.678 0 0 0-3.69 3.69V32h-5.58zm30.992 0V.455h5.58V32h-5.58zm20.773 0V5.99h-10.26V.41h26.145v5.58h-10.305V32h-5.58zm45.156-22.32V32h-5.58V9.68c0-2.34-.36-3.87-1.89-3.87-2.565 0-4.86 3.96-5.895 5.625L733.573 32h-6.66l13.32-20.565c4.59-7.11 7.56-11.205 13.68-11.205 3.78 0 6.345 3.51 6.345 9.45zm14.257 16.74h11.7V32h-11.7c-5.13 0-9.315-4.185-9.315-9.315V.455h5.58v22.23a3.726 3.726 0 0 0 3.735 3.735zM34.029 72.68V95h-5.58V72.68c0-2.34-.36-3.87-1.89-3.87-2.565 0-4.86 3.96-5.895 5.625L7.344 95H.684l13.32-20.565c4.59-7.11 7.56-11.205 13.68-11.205 3.78 0 6.345 3.51 6.345 9.45zm35.497-9.27v22.275c0 6.975-3.51 9.315-5.67 9.315-4.41 0-6.03-1.755-9.9-9.9l-4.5-9.45c-1.35-2.88-5.13-11.61-4.905-2.97V95h-5.58V72.68c0-6.975 3.465-9.27 5.625-9.27 4.455 0 6.03 1.71 9.9 9.855l4.68 9.81c1.62 3.6 4.995 10.665 4.77 2.61V63.41h5.58zM86.01 95H74.49v-5.58h11.385c5.67 0 10.215-4.59 10.215-10.215 0-5.67-4.545-10.215-10.215-10.215H74.49v-5.58h11.385c8.73 0 15.795 7.065 15.795 15.795 0 8.685-7.02 15.705-15.66 15.795zm59.626 0h-11.475c-8.685-.09-15.705-7.11-15.705-15.795 0-8.73 7.065-15.795 15.795-15.795h11.385v5.58h-11.385c-5.625 0-10.215 4.545-10.215 10.215 0 5.625 4.59 10.215 10.215 10.215h11.385V95zm-4.32-13.005h-10.485v-5.58h10.485v5.58zm18.14-2.745c-2.16-2.385-3.465-5.58-4.41-7.29l-4.455-8.505h6.3l3.105 5.895c1.665 2.925 3.375 7.11 5.22 7.11 4.455 0 3.645.54 7.83-7.11l3.105-5.895h6.3l-4.455 8.505c-.945 1.71-2.25 4.905-4.41 7.29 2.16 2.34 3.465 5.535 4.41 7.245L182.451 95h-6.3l-3.105-5.895c-1.665-2.925-3.375-7.065-5.22-7.065-4.455 0-3.645-.54-7.83 7.065L156.891 95h-6.3l4.455-8.505c.945-1.71 2.25-4.905 4.41-7.245zM187.383 95v-9.315c0-5.13 4.14-9.27 9.27-9.27h7.515c4.86 0 4.86-7.425 0-7.425h-16.785v-5.58h16.785c5.13 0 9.27 4.14 9.27 9.27a9.26 9.26 0 0 1-8.19 9.225v.09h-8.595a3.678 3.678 0 0 0-3.69 3.69V95h-5.58zm55.931 0h-11.475c-8.685-.09-15.705-7.11-15.705-15.795 0-8.73 7.065-15.795 15.795-15.795h11.385v5.58h-11.385c-5.625 0-10.215 4.545-10.215 10.215 0 5.625 4.59 10.215 10.215 10.215h11.385V95zm-4.32-13.005h-10.485v-5.58h10.485v5.58zm29.57-.675 7.29 13.68h-6.3l-3.105-5.94c-1.71-2.925-3.375-7.065-5.22-7.065h-3.69a3.707 3.707 0 0 0-3.69 3.69V95h-5.58v-9.315c0-5.13 4.14-9.27 9.27-9.27h7.515c4.905 0 4.905-7.425 0-7.425h-16.785v-5.58h16.785c10.17 0 12.87 14.085 3.51 17.91zM280.799 95V63.455h5.58V95h-5.58zm37.693 0h-11.475c-8.685-.09-15.705-7.11-15.705-15.795 0-8.73 7.065-15.795 15.795-15.795h11.385v5.58h-11.385c-5.625 0-10.215 4.545-10.215 10.215 0 5.625 4.59 10.215 10.215 10.215h11.385V95zm-4.32-13.005h-10.485v-5.58h10.485v5.58zm39.83-18.585v22.275c0 6.975-3.51 9.315-5.67 9.315-4.41 0-6.03-1.755-9.9-9.9l-4.5-9.45c-1.35-2.88-5.13-11.61-4.905-2.97V95h-5.58V72.68c0-6.975 3.465-9.27 5.625-9.27 4.455 0 6.03 1.71 9.9 9.855l4.68 9.81c1.62 3.6 4.995 10.665 4.77 2.61V63.41h5.58zM386.145 95H374.67c-8.685-.09-15.705-7.11-15.705-15.795 0-8.73 7.065-15.795 15.75-15.795h11.43v5.58h-11.43c-5.625 0-10.17 4.545-10.17 10.215 0 5.625 4.545 10.215 10.17 10.215h11.43V95zm29.894 0h-11.475c-8.685-.09-15.705-7.11-15.705-15.795 0-8.73 7.065-15.795 15.795-15.795h11.385v5.58h-11.385c-5.625 0-10.215 4.545-10.215 10.215 0 5.625 4.59 10.215 10.215 10.215h11.385V95zm-4.32-13.005h-10.485v-5.58h10.485v5.58zM443.085 95V68.99h-10.26v-5.58h26.145v5.58h-10.305V95h-5.58zm42.6 0V81.86h-16.2V95h-5.58V63.455h5.58V76.28h16.2V63.455h5.58V95h-5.58zm37.71 0H511.92c-8.685-.09-15.705-7.11-15.705-15.795 0-8.73 7.065-15.795 15.795-15.795h11.385v5.58H512.01c-5.625 0-10.215 4.545-10.215 10.215 0 5.625 4.59 10.215 10.215 10.215h11.385V95zm-4.32-13.005H508.59v-5.58h10.485v5.58zm26.687-2.79V95h-5.58V79.205c0-8.73 7.02-15.795 15.93-15.795h11.385v5.58h-11.52a10.179 10.179 0 0 0-10.215 10.215zm17.415 2.79h-10.485v-5.58h10.485v5.58zm21.961 13.095c-7.02 0-12.69-5.67-12.69-12.69V63.5h5.58v18.9c0 3.915 3.195 7.11 7.11 7.11 3.915 0 7.065-3.195 7.065-7.11V63.5h5.58v18.9c0 7.02-5.67 12.69-12.645 12.69zm27.859-.09V68.99h-10.26v-5.58h26.145v5.58h-10.305V95h-5.58zm33.51.09c-7.02 0-12.69-5.67-12.69-12.69V63.5h5.58v18.9c0 3.915 3.195 7.11 7.11 7.11 3.915 0 7.065-3.195 7.065-7.11V63.5h5.58v18.9c0 7.02-5.67 12.69-12.645 12.69zm37.894-13.77 7.29 13.68h-6.3l-3.105-5.94c-1.71-2.925-3.375-7.065-5.22-7.065h-3.69a3.707 3.707 0 0 0-3.69 3.69V95h-5.58v-9.315c0-5.13 4.14-9.27 9.27-9.27h7.515c4.905 0 4.905-7.425 0-7.425h-16.785v-5.58h16.785c10.17 0 12.87 14.085 3.51 17.91zM721.575 95H710.1c-8.685-.09-15.705-7.11-15.705-15.795 0-8.73 7.065-15.795 15.795-15.795h11.385v5.58H710.19c-5.625 0-10.215 4.545-10.215 10.215 0 5.625 4.59 10.215 10.215 10.215h11.385V95zm-4.32-13.005H706.77v-5.58h10.485v5.58zm37.216-18.9c8.865 0 16.11 7.2 16.11 16.11 0 8.865-7.245 16.11-16.11 16.11-8.91 0-16.11-7.245-16.11-16.11 0-8.91 7.2-16.11 16.11-16.11zm0 26.64c5.76 0 10.53-4.815 10.53-10.575 0-5.76-4.77-10.485-10.53-10.485s-10.53 4.725-10.53 10.485 4.77 10.575 10.53 10.575zm26.658-10.53V95h-5.58V79.205c0-8.73 7.02-15.795 15.93-15.795h11.385v5.58h-11.52a10.179 10.179 0 0 0-10.215 10.215zm17.415 2.79h-10.485v-5.58h10.485v5.58zM48.639 158H37.164c-8.685-.09-15.705-7.11-15.705-15.795 0-8.73 7.065-15.795 15.75-15.795h11.43v5.58H37.21c-5.625 0-10.17 4.545-10.17 10.215 0 5.625 4.545 10.215 10.17 10.215h11.43V158zm25.25-13.68 7.29 13.68h-6.3l-3.105-5.94c-1.71-2.925-3.375-7.065-5.22-7.065h-3.69a3.707 3.707 0 0 0-3.69 3.69V158h-5.58v-9.315c0-5.13 4.14-9.27 9.27-9.27h7.515c4.905 0 4.905-7.425 0-7.425H53.594v-5.58h16.785c10.17 0 12.87 14.085 3.51 17.91zM94.78 158v-13.14c-4.905-1.035-7.245-7.29-8.685-9.9l-4.455-8.505h6.3l3.105 5.895c1.665 2.925 3.375 7.11 5.22 7.11 4.275 0 3.645.63 7.83-7.11l3.105-5.895h6.3l-4.455 8.505c-1.485 2.61-3.78 8.865-8.685 9.9V158h-5.58zm23.653 0v-9.315c0-5.13 4.14-9.27 9.27-9.27h7.515c4.86 0 4.86-7.425 0-7.425h-16.785v-5.58h16.785c5.13 0 9.27 4.14 9.27 9.27a9.26 9.26 0 0 1-8.19 9.225v.09h-8.595a3.678 3.678 0 0 0-3.69 3.69V158h-5.58zm40.109 0v-26.01h-10.26v-5.58h26.145v5.58h-10.305V158h-5.58zm33.547-31.905c8.865 0 16.11 7.2 16.11 16.11 0 8.865-7.245 16.11-16.11 16.11-8.91 0-16.11-7.245-16.11-16.11 0-8.91 7.2-16.11 16.11-16.11zm0 26.64c5.76 0 10.53-4.815 10.53-10.575 0-5.76-4.77-10.485-10.53-10.485s-10.53 4.725-10.53 10.485 4.77 10.575 10.53 10.575zM239.205 158H227.73c-8.685-.09-15.705-7.11-15.705-15.795 0-8.73 7.065-15.795 15.75-15.795h11.43v5.58h-11.43c-5.625 0-10.17 4.545-10.17 10.215 0 5.625 4.545 10.215 10.17 10.215h11.43V158zm17.645.09c-7.02 0-12.69-5.67-12.69-12.69v-18.9h5.58v18.9c0 3.915 3.195 7.11 7.11 7.11 3.915 0 7.065-3.195 7.065-7.11v-18.9h5.58v18.9c0 7.02-5.67 12.69-12.645 12.69zm37.894-13.77 7.29 13.68h-6.3l-3.105-5.94c-1.71-2.925-3.375-7.065-5.22-7.065h-3.69a3.707 3.707 0 0 0-3.69 3.69V158h-5.58v-9.315c0-5.13 4.14-9.27 9.27-9.27h7.515c4.905 0 4.905-7.425 0-7.425h-16.785v-5.58h16.785c10.17 0 12.87 14.085 3.51 17.91zm32.53 0 7.29 13.68h-6.3l-3.105-5.94c-1.71-2.925-3.375-7.065-5.22-7.065h-3.69a3.707 3.707 0 0 0-3.69 3.69V158h-5.58v-9.315c0-5.13 4.14-9.27 9.27-9.27h7.515c4.905 0 4.905-7.425 0-7.425h-16.785v-5.58h16.785c10.17 0 12.87 14.085 3.51 17.91zM364.448 158h-11.475c-8.685-.09-15.705-7.11-15.705-15.795 0-8.73 7.065-15.795 15.795-15.795h11.385v5.58h-11.385c-5.625 0-10.215 4.545-10.215 10.215 0 5.625 4.59 10.215 10.215 10.215h11.385V158zm-4.32-13.005h-10.485v-5.58h10.485v5.58zm39.829-18.585v22.275c0 6.975-3.51 9.315-5.67 9.315-4.41 0-6.03-1.755-9.9-9.9l-4.5-9.45c-1.35-2.88-5.13-11.61-4.905-2.97V158h-5.58v-22.32c0-6.975 3.465-9.27 5.625-9.27 4.455 0 6.03 1.71 9.9 9.855l4.68 9.81c1.62 3.6 4.995 10.665 4.77 2.61V126.41h5.58zM432.101 158h-11.475c-8.685-.09-15.705-7.11-15.705-15.795 0-8.73 7.065-15.795 15.75-15.795h11.43v5.58h-11.43c-5.625 0-10.17 4.545-10.17 10.215 0 5.625 4.545 10.215 10.17 10.215h11.43V158zm18.094 0v-13.14c-4.905-1.035-7.245-7.29-8.685-9.9l-4.455-8.505h6.3l3.105 5.895c1.665 2.925 3.375 7.11 5.22 7.11 4.275 0 3.645.63 7.83-7.11l3.105-5.895h6.3l-4.455 8.505c-1.485 2.61-3.78 8.865-8.685 9.9V158h-5.58zm44.8-5.58h11.7V158h-11.7c-5.13 0-9.315-4.185-9.315-9.315v-22.23h5.58v22.23a3.726 3.726 0 0 0 3.735 3.735zm16.667 5.58v-31.545h5.58V158h-5.58zm26.623-31.905c15.705 0 22.05 20.25 9.27 29.25l3.465 6.21h-6.39l-2.115-3.825c-10.215 2.79-20.34-4.86-20.34-15.525 0-8.91 7.2-16.11 16.11-16.11zm0 26.64c.45 0 .945-.045 1.395-.09l-4.095-7.425h6.345l2.88 5.175c7.875-6.345 3.24-18.72-6.525-18.72-5.76 0-10.53 4.725-10.53 10.485s4.77 10.575 10.53 10.575zm32.626 5.355c-7.02 0-12.69-5.67-12.69-12.69v-18.9h5.58v18.9c0 3.915 3.195 7.11 7.11 7.11 3.915 0 7.065-3.195 7.065-7.11v-18.9h5.58v18.9c0 7.02-5.67 12.69-12.645 12.69zm17.599-.09v-31.545h5.58V158h-5.58zm22.034 0h-11.52v-5.58h11.385c5.67 0 10.215-4.59 10.215-10.215 0-5.67-4.545-10.215-10.215-10.215h-11.385v-5.58h11.385c8.73 0 15.795 7.065 15.795 15.795 0 8.685-7.02 15.705-15.66 15.795zm48.334-22.32V158h-5.58v-22.32c0-2.34-.36-3.87-1.89-3.87-2.565 0-4.86 3.96-5.895 5.625L632.193 158h-6.66l13.32-20.565c4.59-7.11 7.56-11.205 13.68-11.205 3.78 0 6.345 3.51 6.345 9.45zM674.08 158v-26.01h-10.26v-5.58h26.145v5.58H679.66V158h-5.58zm20.82 0v-31.545h5.58V158h-5.58zm25.481-31.905c8.865 0 16.11 7.2 16.11 16.11 0 8.865-7.245 16.11-16.11 16.11-8.91 0-16.11-7.245-16.11-16.11 0-8.91 7.2-16.11 16.11-16.11zm0 26.64c5.76 0 10.53-4.815 10.53-10.575 0-5.76-4.77-10.485-10.53-10.485s-10.53 4.725-10.53 10.485 4.77 10.575 10.53 10.575zm51.633-26.325v22.275c0 6.975-3.51 9.315-5.67 9.315-4.41 0-6.03-1.755-9.9-9.9l-4.5-9.45c-1.35-2.88-5.13-11.61-4.905-2.97V158h-5.58v-22.32c0-6.975 3.465-9.27 5.625-9.27 4.455 0 6.03 1.71 9.9 9.855l4.68 9.81c1.62 3.6 4.995 10.665 4.77 2.61V126.41h5.58zm4.963 28.845c0-3.69 5.58-3.69 5.58 0 0 3.645-5.58 3.69-5.58 0z" fill="url(#a)"/><path d="M17.318 32v-9.315c0-5.13 4.14-9.27 9.27-9.27h7.515c4.86 0 4.86-7.425 0-7.425H17.318V.41h16.785c5.13 0 9.27 4.14 9.27 9.27a9.26 9.26 0 0 1-8.19 9.225v.09h-8.595a3.678 3.678 0 0 0-3.69 3.69V32h-5.58zM70.405 9.68V32h-5.58V9.68c0-2.34-.36-3.87-1.89-3.87-2.565 0-4.86 3.96-5.895 5.625L43.72 32h-6.66l13.32-20.565C54.97 4.325 57.94.23 64.06.23c3.78 0 6.345 3.51 6.345 9.45zm25.237 8.64 7.29 13.68h-6.3l-3.105-5.94c-1.71-2.925-3.375-7.065-5.22-7.065h-3.69a3.707 3.707 0 0 0-3.69 3.69V32h-5.58v-9.315c0-5.13 4.14-9.27 9.27-9.27h7.515c4.905 0 4.905-7.425 0-7.425H75.347V.41h16.785c10.17 0 12.87 14.085 3.51 17.91zM115.895 32V5.99h-10.26V.41h26.145v5.58h-10.305V32h-5.58zM167.27.41v22.275c0 6.975-3.51 9.315-5.67 9.315-4.41 0-6.03-1.755-9.9-9.9l-4.5-9.45c-1.35-2.88-5.13-11.61-4.905-2.97V32h-5.58V9.68c0-6.975 3.465-9.27 5.625-9.27 4.455 0 6.03 1.71 9.9 9.855l4.68 9.81c1.62 3.6 4.995 10.665 4.77 2.61V.41h5.58zM199.414 32h-11.475c-8.685-.09-15.705-7.11-15.705-15.795 0-8.73 7.065-15.795 15.795-15.795h11.385v5.58h-11.385c-5.625 0-10.215 4.545-10.215 10.215 0 5.625 4.59 10.215 10.215 10.215h11.385V32zm-4.32-13.005h-10.485v-5.58h10.485v5.58zm29.569-.675 7.29 13.68h-6.3l-3.105-5.94c-1.71-2.925-3.375-7.065-5.22-7.065h-3.69a3.707 3.707 0 0 0-3.69 3.69V32h-5.58v-9.315c0-5.13 4.14-9.27 9.27-9.27h7.515c4.905 0 4.905-7.425 0-7.425h-16.785V.41h16.785c10.17 0 12.87 14.085 3.51 17.91zm51.427-8.865v13.68s-.225 3.375.54 3.375c.63 0 1.08-1.53 2.34-4.77L287.475.5h5.985L285 21.74c-2.52 6.885-4.725 10.35-9.18 10.35-3.15 0-5.31-3.24-5.31-8.955V9.455s.18-3.375-.585-3.375c-.54 0-.945 1.08-1.845 3.375h.045L263.22 21.74c-2.52 6.885-4.725 10.35-9.18 10.35-3.15 0-5.31-3.24-5.31-8.955V.5h5.58v22.635s-.225 3.375.54 3.375c.63 0 1.08-1.53 2.34-4.77l4.41-11.07C264.12 3.92 266.325.5 270.735.5c3.15 0 5.355 3.195 5.355 8.955zM298.399 32V.455h5.58V32h-5.58zm20.773 0V5.99h-10.26V.41h26.145v5.58h-10.305V32h-5.58zm42.6 0V18.86h-16.2V32h-5.58V.455h5.58V13.28h16.2V.455h5.58V32h-5.58zm43.962-12.96h-9v-5.58h9c5.13 0 9.27 4.14 9.27 9.27s-4.14 9.27-9.27 9.27h-5.895c-8.685-.045-15.705-7.065-15.705-15.75 0-8.73 7.065-15.795 15.795-15.795h11.385v5.58h-11.385a10.179 10.179 0 0 0-10.215 10.215c0 5.625 4.545 10.17 10.215 10.17h5.805c4.905 0 4.905-7.38 0-7.38zm43.089-9.36V32h-5.58V9.68c0-2.34-.36-3.87-1.89-3.87-2.565 0-4.86 3.96-5.895 5.625L422.138 32h-6.66l13.32-20.565c4.59-7.11 7.56-11.205 13.68-11.205 3.78 0 6.345 3.51 6.345 9.45zm14.257 16.74h11.7V32h-11.7c-5.13 0-9.315-4.185-9.315-9.315V.455h5.58v22.23a3.726 3.726 0 0 0 3.735 3.735zM479.747 32V.455h5.58V32h-5.58zm19.829-5.58h11.7V32h-11.7c-5.13 0-9.315-4.185-9.315-9.315V.455h5.58v22.23a3.726 3.726 0 0 0 3.735 3.735zM541.182 32h-11.475c-8.685-.09-15.705-7.11-15.705-15.795 0-8.73 7.065-15.795 15.795-15.795h11.385v5.58h-11.385c-5.625 0-10.215 4.545-10.215 10.215 0 5.625 4.59 10.215 10.215 10.215h11.385V32zm-4.32-13.005h-10.485v-5.58h10.485v5.58zm23.143-18.9c8.865 0 16.11 7.2 16.11 16.11 0 8.865-7.245 16.11-16.11 16.11-8.91 0-16.11-7.245-16.11-16.11 0-8.91 7.2-16.11 16.11-16.11zm0 26.64c5.76 0 10.53-4.815 10.53-10.575 0-5.76-4.77-10.485-10.53-10.485s-10.53 4.725-10.53 10.485 4.77 10.575 10.53 10.575zM620.095 32H608.62c-8.685-.09-15.705-7.11-15.705-15.795 0-8.73 7.065-15.795 15.75-15.795h11.43v5.58h-11.43c-5.625 0-10.17 4.545-10.17 10.215 0 5.625 4.545 10.215 10.17 10.215h11.43V32zm38.3-22.32V32h-5.58V9.68c0-2.34-.36-3.87-1.89-3.87-2.565 0-4.86 3.96-5.895 5.625L631.71 32h-6.66l13.32-20.565C642.96 4.325 645.93.23 652.05.23c3.78 0 6.345 3.51 6.345 9.45zM663.337 32v-9.315c0-5.13 4.14-9.27 9.27-9.27h7.515c4.86 0 4.86-7.425 0-7.425h-16.785V.41h16.785c5.13 0 9.27 4.14 9.27 9.27a9.26 9.26 0 0 1-8.19 9.225v.09h-8.595a3.678 3.678 0 0 0-3.69 3.69V32h-5.58zm30.992 0V.455h5.58V32h-5.58zm20.773 0V5.99h-10.26V.41h26.145v5.58h-10.305V32h-5.58zm45.156-22.32V32h-5.58V9.68c0-2.34-.36-3.87-1.89-3.87-2.565 0-4.86 3.96-5.895 5.625L733.573 32h-6.66l13.32-20.565c4.59-7.11 7.56-11.205 13.68-11.205 3.78 0 6.345 3.51 6.345 9.45zm14.257 16.74h11.7V32h-11.7c-5.13 0-9.315-4.185-9.315-9.315V.455h5.58v22.23a3.726 3.726 0 0 0 3.735 3.735zM34.029 72.68V95h-5.58V72.68c0-2.34-.36-3.87-1.89-3.87-2.565 0-4.86 3.96-5.895 5.625L7.344 95H.684l13.32-20.565c4.59-7.11 7.56-11.205 13.68-11.205 3.78 0 6.345 3.51 6.345 9.45zm35.497-9.27v22.275c0 6.975-3.51 9.315-5.67 9.315-4.41 0-6.03-1.755-9.9-9.9l-4.5-9.45c-1.35-2.88-5.13-11.61-4.905-2.97V95h-5.58V72.68c0-6.975 3.465-9.27 5.625-9.27 4.455 0 6.03 1.71 9.9 9.855l4.68 9.81c1.62 3.6 4.995 10.665 4.77 2.61V63.41h5.58zM86.01 95H74.49v-5.58h11.385c5.67 0 10.215-4.59 10.215-10.215 0-5.67-4.545-10.215-10.215-10.215H74.49v-5.58h11.385c8.73 0 15.795 7.065 15.795 15.795 0 8.685-7.02 15.705-15.66 15.795zm59.626 0h-11.475c-8.685-.09-15.705-7.11-15.705-15.795 0-8.73 7.065-15.795 15.795-15.795h11.385v5.58h-11.385c-5.625 0-10.215 4.545-10.215 10.215 0 5.625 4.59 10.215 10.215 10.215h11.385V95zm-4.32-13.005h-10.485v-5.58h10.485v5.58zm18.14-2.745c-2.16-2.385-3.465-5.58-4.41-7.29l-4.455-8.505h6.3l3.105 5.895c1.665 2.925 3.375 7.11 5.22 7.11 4.455 0 3.645.54 7.83-7.11l3.105-5.895h6.3l-4.455 8.505c-.945 1.71-2.25 4.905-4.41 7.29 2.16 2.34 3.465 5.535 4.41 7.245L182.451 95h-6.3l-3.105-5.895c-1.665-2.925-3.375-7.065-5.22-7.065-4.455 0-3.645-.54-7.83 7.065L156.891 95h-6.3l4.455-8.505c.945-1.71 2.25-4.905 4.41-7.245zM187.383 95v-9.315c0-5.13 4.14-9.27 9.27-9.27h7.515c4.86 0 4.86-7.425 0-7.425h-16.785v-5.58h16.785c5.13 0 9.27 4.14 9.27 9.27a9.26 9.26 0 0 1-8.19 9.225v.09h-8.595a3.678 3.678 0 0 0-3.69 3.69V95h-5.58zm55.931 0h-11.475c-8.685-.09-15.705-7.11-15.705-15.795 0-8.73 7.065-15.795 15.795-15.795h11.385v5.58h-11.385c-5.625 0-10.215 4.545-10.215 10.215 0 5.625 4.59 10.215 10.215 10.215h11.385V95zm-4.32-13.005h-10.485v-5.58h10.485v5.58zm29.57-.675 7.29 13.68h-6.3l-3.105-5.94c-1.71-2.925-3.375-7.065-5.22-7.065h-3.69a3.707 3.707 0 0 0-3.69 3.69V95h-5.58v-9.315c0-5.13 4.14-9.27 9.27-9.27h7.515c4.905 0 4.905-7.425 0-7.425h-16.785v-5.58h16.785c10.17 0 12.87 14.085 3.51 17.91zM280.799 95V63.455h5.58V95h-5.58zm37.693 0h-11.475c-8.685-.09-15.705-7.11-15.705-15.795 0-8.73 7.065-15.795 15.795-15.795h11.385v5.58h-11.385c-5.625 0-10.215 4.545-10.215 10.215 0 5.625 4.59 10.215 10.215 10.215h11.385V95zm-4.32-13.005h-10.485v-5.58h10.485v5.58zm39.83-18.585v22.275c0 6.975-3.51 9.315-5.67 9.315-4.41 0-6.03-1.755-9.9-9.9l-4.5-9.45c-1.35-2.88-5.13-11.61-4.905-2.97V95h-5.58V72.68c0-6.975 3.465-9.27 5.625-9.27 4.455 0 6.03 1.71 9.9 9.855l4.68 9.81c1.62 3.6 4.995 10.665 4.77 2.61V63.41h5.58zM386.145 95H374.67c-8.685-.09-15.705-7.11-15.705-15.795 0-8.73 7.065-15.795 15.75-15.795h11.43v5.58h-11.43c-5.625 0-10.17 4.545-10.17 10.215 0 5.625 4.545 10.215 10.17 10.215h11.43V95zm29.894 0h-11.475c-8.685-.09-15.705-7.11-15.705-15.795 0-8.73 7.065-15.795 15.795-15.795h11.385v5.58h-11.385c-5.625 0-10.215 4.545-10.215 10.215 0 5.625 4.59 10.215 10.215 10.215h11.385V95zm-4.32-13.005h-10.485v-5.58h10.485v5.58zM443.085 95V68.99h-10.26v-5.58h26.145v5.58h-10.305V95h-5.58zm42.6 0V81.86h-16.2V95h-5.58V63.455h5.58V76.28h16.2V63.455h5.58V95h-5.58zm37.71 0H511.92c-8.685-.09-15.705-7.11-15.705-15.795 0-8.73 7.065-15.795 15.795-15.795h11.385v5.58H512.01c-5.625 0-10.215 4.545-10.215 10.215 0 5.625 4.59 10.215 10.215 10.215h11.385V95zm-4.32-13.005H508.59v-5.58h10.485v5.58zm26.687-2.79V95h-5.58V79.205c0-8.73 7.02-15.795 15.93-15.795h11.385v5.58h-11.52a10.179 10.179 0 0 0-10.215 10.215zm17.415 2.79h-10.485v-5.58h10.485v5.58zm21.961 13.095c-7.02 0-12.69-5.67-12.69-12.69V63.5h5.58v18.9c0 3.915 3.195 7.11 7.11 7.11 3.915 0 7.065-3.195 7.065-7.11V63.5h5.58v18.9c0 7.02-5.67 12.69-12.645 12.69zm27.859-.09V68.99h-10.26v-5.58h26.145v5.58h-10.305V95h-5.58zm33.51.09c-7.02 0-12.69-5.67-12.69-12.69V63.5h5.58v18.9c0 3.915 3.195 7.11 7.11 7.11 3.915 0 7.065-3.195 7.065-7.11V63.5h5.58v18.9c0 7.02-5.67 12.69-12.645 12.69zm37.894-13.77 7.29 13.68h-6.3l-3.105-5.94c-1.71-2.925-3.375-7.065-5.22-7.065h-3.69a3.707 3.707 0 0 0-3.69 3.69V95h-5.58v-9.315c0-5.13 4.14-9.27 9.27-9.27h7.515c4.905 0 4.905-7.425 0-7.425h-16.785v-5.58h16.785c10.17 0 12.87 14.085 3.51 17.91zM721.575 95H710.1c-8.685-.09-15.705-7.11-15.705-15.795 0-8.73 7.065-15.795 15.795-15.795h11.385v5.58H710.19c-5.625 0-10.215 4.545-10.215 10.215 0 5.625 4.59 10.215 10.215 10.215h11.385V95zm-4.32-13.005H706.77v-5.58h10.485v5.58zm37.216-18.9c8.865 0 16.11 7.2 16.11 16.11 0 8.865-7.245 16.11-16.11 16.11-8.91 0-16.11-7.245-16.11-16.11 0-8.91 7.2-16.11 16.11-16.11zm0 26.64c5.76 0 10.53-4.815 10.53-10.575 0-5.76-4.77-10.485-10.53-10.485s-10.53 4.725-10.53 10.485 4.77 10.575 10.53 10.575zm26.658-10.53V95h-5.58V79.205c0-8.73 7.02-15.795 15.93-15.795h11.385v5.58h-11.52a10.179 10.179 0 0 0-10.215 10.215zm17.415 2.79h-10.485v-5.58h10.485v5.58zM48.639 158H37.164c-8.685-.09-15.705-7.11-15.705-15.795 0-8.73 7.065-15.795 15.75-15.795h11.43v5.58H37.21c-5.625 0-10.17 4.545-10.17 10.215 0 5.625 4.545 10.215 10.17 10.215h11.43V158zm25.25-13.68 7.29 13.68h-6.3l-3.105-5.94c-1.71-2.925-3.375-7.065-5.22-7.065h-3.69a3.707 3.707 0 0 0-3.69 3.69V158h-5.58v-9.315c0-5.13 4.14-9.27 9.27-9.27h7.515c4.905 0 4.905-7.425 0-7.425H53.594v-5.58h16.785c10.17 0 12.87 14.085 3.51 17.91zM94.78 158v-13.14c-4.905-1.035-7.245-7.29-8.685-9.9l-4.455-8.505h6.3l3.105 5.895c1.665 2.925 3.375 7.11 5.22 7.11 4.275 0 3.645.63 7.83-7.11l3.105-5.895h6.3l-4.455 8.505c-1.485 2.61-3.78 8.865-8.685 9.9V158h-5.58zm23.653 0v-9.315c0-5.13 4.14-9.27 9.27-9.27h7.515c4.86 0 4.86-7.425 0-7.425h-16.785v-5.58h16.785c5.13 0 9.27 4.14 9.27 9.27a9.26 9.26 0 0 1-8.19 9.225v.09h-8.595a3.678 3.678 0 0 0-3.69 3.69V158h-5.58zm40.109 0v-26.01h-10.26v-5.58h26.145v5.58h-10.305V158h-5.58zm33.547-31.905c8.865 0 16.11 7.2 16.11 16.11 0 8.865-7.245 16.11-16.11 16.11-8.91 0-16.11-7.245-16.11-16.11 0-8.91 7.2-16.11 16.11-16.11zm0 26.64c5.76 0 10.53-4.815 10.53-10.575 0-5.76-4.77-10.485-10.53-10.485s-10.53 4.725-10.53 10.485 4.77 10.575 10.53 10.575zM239.205 158H227.73c-8.685-.09-15.705-7.11-15.705-15.795 0-8.73 7.065-15.795 15.75-15.795h11.43v5.58h-11.43c-5.625 0-10.17 4.545-10.17 10.215 0 5.625 4.545 10.215 10.17 10.215h11.43V158zm17.645.09c-7.02 0-12.69-5.67-12.69-12.69v-18.9h5.58v18.9c0 3.915 3.195 7.11 7.11 7.11 3.915 0 7.065-3.195 7.065-7.11v-18.9h5.58v18.9c0 7.02-5.67 12.69-12.645 12.69zm37.894-13.77 7.29 13.68h-6.3l-3.105-5.94c-1.71-2.925-3.375-7.065-5.22-7.065h-3.69a3.707 3.707 0 0 0-3.69 3.69V158h-5.58v-9.315c0-5.13 4.14-9.27 9.27-9.27h7.515c4.905 0 4.905-7.425 0-7.425h-16.785v-5.58h16.785c10.17 0 12.87 14.085 3.51 17.91zm32.53 0 7.29 13.68h-6.3l-3.105-5.94c-1.71-2.925-3.375-7.065-5.22-7.065h-3.69a3.707 3.707 0 0 0-3.69 3.69V158h-5.58v-9.315c0-5.13 4.14-9.27 9.27-9.27h7.515c4.905 0 4.905-7.425 0-7.425h-16.785v-5.58h16.785c10.17 0 12.87 14.085 3.51 17.91zM364.448 158h-11.475c-8.685-.09-15.705-7.11-15.705-15.795 0-8.73 7.065-15.795 15.795-15.795h11.385v5.58h-11.385c-5.625 0-10.215 4.545-10.215 10.215 0 5.625 4.59 10.215 10.215 10.215h11.385V158zm-4.32-13.005h-10.485v-5.58h10.485v5.58zm39.829-18.585v22.275c0 6.975-3.51 9.315-5.67 9.315-4.41 0-6.03-1.755-9.9-9.9l-4.5-9.45c-1.35-2.88-5.13-11.61-4.905-2.97V158h-5.58v-22.32c0-6.975 3.465-9.27 5.625-9.27 4.455 0 6.03 1.71 9.9 9.855l4.68 9.81c1.62 3.6 4.995 10.665 4.77 2.61V126.41h5.58zM432.101 158h-11.475c-8.685-.09-15.705-7.11-15.705-15.795 0-8.73 7.065-15.795 15.75-15.795h11.43v5.58h-11.43c-5.625 0-10.17 4.545-10.17 10.215 0 5.625 4.545 10.215 10.17 10.215h11.43V158zm18.094 0v-13.14c-4.905-1.035-7.245-7.29-8.685-9.9l-4.455-8.505h6.3l3.105 5.895c1.665 2.925 3.375 7.11 5.22 7.11 4.275 0 3.645.63 7.83-7.11l3.105-5.895h6.3l-4.455 8.505c-1.485 2.61-3.78 8.865-8.685 9.9V158h-5.58zm44.8-5.58h11.7V158h-11.7c-5.13 0-9.315-4.185-9.315-9.315v-22.23h5.58v22.23a3.726 3.726 0 0 0 3.735 3.735zm16.667 5.58v-31.545h5.58V158h-5.58zm26.623-31.905c15.705 0 22.05 20.25 9.27 29.25l3.465 6.21h-6.39l-2.115-3.825c-10.215 2.79-20.34-4.86-20.34-15.525 0-8.91 7.2-16.11 16.11-16.11zm0 26.64c.45 0 .945-.045 1.395-.09l-4.095-7.425h6.345l2.88 5.175c7.875-6.345 3.24-18.72-6.525-18.72-5.76 0-10.53 4.725-10.53 10.485s4.77 10.575 10.53 10.575zm32.626 5.355c-7.02 0-12.69-5.67-12.69-12.69v-18.9h5.58v18.9c0 3.915 3.195 7.11 7.11 7.11 3.915 0 7.065-3.195 7.065-7.11v-18.9h5.58v18.9c0 7.02-5.67 12.69-12.645 12.69zm17.599-.09v-31.545h5.58V158h-5.58zm22.034 0h-11.52v-5.58h11.385c5.67 0 10.215-4.59 10.215-10.215 0-5.67-4.545-10.215-10.215-10.215h-11.385v-5.58h11.385c8.73 0 15.795 7.065 15.795 15.795 0 8.685-7.02 15.705-15.66 15.795zm48.334-22.32V158h-5.58v-22.32c0-2.34-.36-3.87-1.89-3.87-2.565 0-4.86 3.96-5.895 5.625L632.193 158h-6.66l13.32-20.565c4.59-7.11 7.56-11.205 13.68-11.205 3.78 0 6.345 3.51 6.345 9.45zM674.08 158v-26.01h-10.26v-5.58h26.145v5.58H679.66V158h-5.58zm20.82 0v-31.545h5.58V158h-5.58zm25.481-31.905c8.865 0 16.11 7.2 16.11 16.11 0 8.865-7.245 16.11-16.11 16.11-8.91 0-16.11-7.245-16.11-16.11 0-8.91 7.2-16.11 16.11-16.11zm0 26.64c5.76 0 10.53-4.815 10.53-10.575 0-5.76-4.77-10.485-10.53-10.485s-10.53 4.725-10.53 10.485 4.77 10.575 10.53 10.575zm51.633-26.325v22.275c0 6.975-3.51 9.315-5.67 9.315-4.41 0-6.03-1.755-9.9-9.9l-4.5-9.45c-1.35-2.88-5.13-11.61-4.905-2.97V158h-5.58v-22.32c0-6.975 3.465-9.27 5.625-9.27 4.455 0 6.03 1.71 9.9 9.855l4.68 9.81c1.62 3.6 4.995 10.665 4.77 2.61V126.41h5.58zm4.963 28.845c0-3.69 5.58-3.69 5.58 0 0 3.645-5.58 3.69-5.58 0z" fill="url(#b)"/><path d="M17.318 32v-9.315c0-5.13 4.14-9.27 9.27-9.27h7.515c4.86 0 4.86-7.425 0-7.425H17.318V.41h16.785c5.13 0 9.27 4.14 9.27 9.27a9.26 9.26 0 0 1-8.19 9.225v.09h-8.595a3.678 3.678 0 0 0-3.69 3.69V32h-5.58zM70.405 9.68V32h-5.58V9.68c0-2.34-.36-3.87-1.89-3.87-2.565 0-4.86 3.96-5.895 5.625L43.72 32h-6.66l13.32-20.565C54.97 4.325 57.94.23 64.06.23c3.78 0 6.345 3.51 6.345 9.45zm25.237 8.64 7.29 13.68h-6.3l-3.105-5.94c-1.71-2.925-3.375-7.065-5.22-7.065h-3.69a3.707 3.707 0 0 0-3.69 3.69V32h-5.58v-9.315c0-5.13 4.14-9.27 9.27-9.27h7.515c4.905 0 4.905-7.425 0-7.425H75.347V.41h16.785c10.17 0 12.87 14.085 3.51 17.91zM115.895 32V5.99h-10.26V.41h26.145v5.58h-10.305V32h-5.58zM167.27.41v22.275c0 6.975-3.51 9.315-5.67 9.315-4.41 0-6.03-1.755-9.9-9.9l-4.5-9.45c-1.35-2.88-5.13-11.61-4.905-2.97V32h-5.58V9.68c0-6.975 3.465-9.27 5.625-9.27 4.455 0 6.03 1.71 9.9 9.855l4.68 9.81c1.62 3.6 4.995 10.665 4.77 2.61V.41h5.58zM199.414 32h-11.475c-8.685-.09-15.705-7.11-15.705-15.795 0-8.73 7.065-15.795 15.795-15.795h11.385v5.58h-11.385c-5.625 0-10.215 4.545-10.215 10.215 0 5.625 4.59 10.215 10.215 10.215h11.385V32zm-4.32-13.005h-10.485v-5.58h10.485v5.58zm29.569-.675 7.29 13.68h-6.3l-3.105-5.94c-1.71-2.925-3.375-7.065-5.22-7.065h-3.69a3.707 3.707 0 0 0-3.69 3.69V32h-5.58v-9.315c0-5.13 4.14-9.27 9.27-9.27h7.515c4.905 0 4.905-7.425 0-7.425h-16.785V.41h16.785c10.17 0 12.87 14.085 3.51 17.91zm51.427-8.865v13.68s-.225 3.375.54 3.375c.63 0 1.08-1.53 2.34-4.77L287.475.5h5.985L285 21.74c-2.52 6.885-4.725 10.35-9.18 10.35-3.15 0-5.31-3.24-5.31-8.955V9.455s.18-3.375-.585-3.375c-.54 0-.945 1.08-1.845 3.375h.045L263.22 21.74c-2.52 6.885-4.725 10.35-9.18 10.35-3.15 0-5.31-3.24-5.31-8.955V.5h5.58v22.635s-.225 3.375.54 3.375c.63 0 1.08-1.53 2.34-4.77l4.41-11.07C264.12 3.92 266.325.5 270.735.5c3.15 0 5.355 3.195 5.355 8.955zM298.399 32V.455h5.58V32h-5.58zm20.773 0V5.99h-10.26V.41h26.145v5.58h-10.305V32h-5.58zm42.6 0V18.86h-16.2V32h-5.58V.455h5.58V13.28h16.2V.455h5.58V32h-5.58zm43.962-12.96h-9v-5.58h9c5.13 0 9.27 4.14 9.27 9.27s-4.14 9.27-9.27 9.27h-5.895c-8.685-.045-15.705-7.065-15.705-15.75 0-8.73 7.065-15.795 15.795-15.795h11.385v5.58h-11.385a10.179 10.179 0 0 0-10.215 10.215c0 5.625 4.545 10.17 10.215 10.17h5.805c4.905 0 4.905-7.38 0-7.38zm43.089-9.36V32h-5.58V9.68c0-2.34-.36-3.87-1.89-3.87-2.565 0-4.86 3.96-5.895 5.625L422.138 32h-6.66l13.32-20.565c4.59-7.11 7.56-11.205 13.68-11.205 3.78 0 6.345 3.51 6.345 9.45zm14.257 16.74h11.7V32h-11.7c-5.13 0-9.315-4.185-9.315-9.315V.455h5.58v22.23a3.726 3.726 0 0 0 3.735 3.735zM479.747 32V.455h5.58V32h-5.58zm19.829-5.58h11.7V32h-11.7c-5.13 0-9.315-4.185-9.315-9.315V.455h5.58v22.23a3.726 3.726 0 0 0 3.735 3.735zM541.182 32h-11.475c-8.685-.09-15.705-7.11-15.705-15.795 0-8.73 7.065-15.795 15.795-15.795h11.385v5.58h-11.385c-5.625 0-10.215 4.545-10.215 10.215 0 5.625 4.59 10.215 10.215 10.215h11.385V32zm-4.32-13.005h-10.485v-5.58h10.485v5.58zm23.143-18.9c8.865 0 16.11 7.2 16.11 16.11 0 8.865-7.245 16.11-16.11 16.11-8.91 0-16.11-7.245-16.11-16.11 0-8.91 7.2-16.11 16.11-16.11zm0 26.64c5.76 0 10.53-4.815 10.53-10.575 0-5.76-4.77-10.485-10.53-10.485s-10.53 4.725-10.53 10.485 4.77 10.575 10.53 10.575zM620.095 32H608.62c-8.685-.09-15.705-7.11-15.705-15.795 0-8.73 7.065-15.795 15.75-15.795h11.43v5.58h-11.43c-5.625 0-10.17 4.545-10.17 10.215 0 5.625 4.545 10.215 10.17 10.215h11.43V32zm38.3-22.32V32h-5.58V9.68c0-2.34-.36-3.87-1.89-3.87-2.565 0-4.86 3.96-5.895 5.625L631.71 32h-6.66l13.32-20.565C642.96 4.325 645.93.23 652.05.23c3.78 0 6.345 3.51 6.345 9.45zM663.337 32v-9.315c0-5.13 4.14-9.27 9.27-9.27h7.515c4.86 0 4.86-7.425 0-7.425h-16.785V.41h16.785c5.13 0 9.27 4.14 9.27 9.27a9.26 9.26 0 0 1-8.19 9.225v.09h-8.595a3.678 3.678 0 0 0-3.69 3.69V32h-5.58zm30.992 0V.455h5.58V32h-5.58zm20.773 0V5.99h-10.26V.41h26.145v5.58h-10.305V32h-5.58zm45.156-22.32V32h-5.58V9.68c0-2.34-.36-3.87-1.89-3.87-2.565 0-4.86 3.96-5.895 5.625L733.573 32h-6.66l13.32-20.565c4.59-7.11 7.56-11.205 13.68-11.205 3.78 0 6.345 3.51 6.345 9.45zm14.257 16.74h11.7V32h-11.7c-5.13 0-9.315-4.185-9.315-9.315V.455h5.58v22.23a3.726 3.726 0 0 0 3.735 3.735zM34.029 72.68V95h-5.58V72.68c0-2.34-.36-3.87-1.89-3.87-2.565 0-4.86 3.96-5.895 5.625L7.344 95H.684l13.32-20.565c4.59-7.11 7.56-11.205 13.68-11.205 3.78 0 6.345 3.51 6.345 9.45zm35.497-9.27v22.275c0 6.975-3.51 9.315-5.67 9.315-4.41 0-6.03-1.755-9.9-9.9l-4.5-9.45c-1.35-2.88-5.13-11.61-4.905-2.97V95h-5.58V72.68c0-6.975 3.465-9.27 5.625-9.27 4.455 0 6.03 1.71 9.9 9.855l4.68 9.81c1.62 3.6 4.995 10.665 4.77 2.61V63.41h5.58zM86.01 95H74.49v-5.58h11.385c5.67 0 10.215-4.59 10.215-10.215 0-5.67-4.545-10.215-10.215-10.215H74.49v-5.58h11.385c8.73 0 15.795 7.065 15.795 15.795 0 8.685-7.02 15.705-15.66 15.795zm59.626 0h-11.475c-8.685-.09-15.705-7.11-15.705-15.795 0-8.73 7.065-15.795 15.795-15.795h11.385v5.58h-11.385c-5.625 0-10.215 4.545-10.215 10.215 0 5.625 4.59 10.215 10.215 10.215h11.385V95zm-4.32-13.005h-10.485v-5.58h10.485v5.58zm18.14-2.745c-2.16-2.385-3.465-5.58-4.41-7.29l-4.455-8.505h6.3l3.105 5.895c1.665 2.925 3.375 7.11 5.22 7.11 4.455 0 3.645.54 7.83-7.11l3.105-5.895h6.3l-4.455 8.505c-.945 1.71-2.25 4.905-4.41 7.29 2.16 2.34 3.465 5.535 4.41 7.245L182.451 95h-6.3l-3.105-5.895c-1.665-2.925-3.375-7.065-5.22-7.065-4.455 0-3.645-.54-7.83 7.065L156.891 95h-6.3l4.455-8.505c.945-1.71 2.25-4.905 4.41-7.245zM187.383 95v-9.315c0-5.13 4.14-9.27 9.27-9.27h7.515c4.86 0 4.86-7.425 0-7.425h-16.785v-5.58h16.785c5.13 0 9.27 4.14 9.27 9.27a9.26 9.26 0 0 1-8.19 9.225v.09h-8.595a3.678 3.678 0 0 0-3.69 3.69V95h-5.58zm55.931 0h-11.475c-8.685-.09-15.705-7.11-15.705-15.795 0-8.73 7.065-15.795 15.795-15.795h11.385v5.58h-11.385c-5.625 0-10.215 4.545-10.215 10.215 0 5.625 4.59 10.215 10.215 10.215h11.385V95zm-4.32-13.005h-10.485v-5.58h10.485v5.58zm29.57-.675 7.29 13.68h-6.3l-3.105-5.94c-1.71-2.925-3.375-7.065-5.22-7.065h-3.69a3.707 3.707 0 0 0-3.69 3.69V95h-5.58v-9.315c0-5.13 4.14-9.27 9.27-9.27h7.515c4.905 0 4.905-7.425 0-7.425h-16.785v-5.58h16.785c10.17 0 12.87 14.085 3.51 17.91zM280.799 95V63.455h5.58V95h-5.58zm37.693 0h-11.475c-8.685-.09-15.705-7.11-15.705-15.795 0-8.73 7.065-15.795 15.795-15.795h11.385v5.58h-11.385c-5.625 0-10.215 4.545-10.215 10.215 0 5.625 4.59 10.215 10.215 10.215h11.385V95zm-4.32-13.005h-10.485v-5.58h10.485v5.58zm39.83-18.585v22.275c0 6.975-3.51 9.315-5.67 9.315-4.41 0-6.03-1.755-9.9-9.9l-4.5-9.45c-1.35-2.88-5.13-11.61-4.905-2.97V95h-5.58V72.68c0-6.975 3.465-9.27 5.625-9.27 4.455 0 6.03 1.71 9.9 9.855l4.68 9.81c1.62 3.6 4.995 10.665 4.77 2.61V63.41h5.58zM386.145 95H374.67c-8.685-.09-15.705-7.11-15.705-15.795 0-8.73 7.065-15.795 15.75-15.795h11.43v5.58h-11.43c-5.625 0-10.17 4.545-10.17 10.215 0 5.625 4.545 10.215 10.17 10.215h11.43V95zm29.894 0h-11.475c-8.685-.09-15.705-7.11-15.705-15.795 0-8.73 7.065-15.795 15.795-15.795h11.385v5.58h-11.385c-5.625 0-10.215 4.545-10.215 10.215 0 5.625 4.59 10.215 10.215 10.215h11.385V95zm-4.32-13.005h-10.485v-5.58h10.485v5.58zM443.085 95V68.99h-10.26v-5.58h26.145v5.58h-10.305V95h-5.58zm42.6 0V81.86h-16.2V95h-5.58V63.455h5.58V76.28h16.2V63.455h5.58V95h-5.58zm37.71 0H511.92c-8.685-.09-15.705-7.11-15.705-15.795 0-8.73 7.065-15.795 15.795-15.795h11.385v5.58H512.01c-5.625 0-10.215 4.545-10.215 10.215 0 5.625 4.59 10.215 10.215 10.215h11.385V95zm-4.32-13.005H508.59v-5.58h10.485v5.58zm26.687-2.79V95h-5.58V79.205c0-8.73 7.02-15.795 15.93-15.795h11.385v5.58h-11.52a10.179 10.179 0 0 0-10.215 10.215zm17.415 2.79h-10.485v-5.58h10.485v5.58zm21.961 13.095c-7.02 0-12.69-5.67-12.69-12.69V63.5h5.58v18.9c0 3.915 3.195 7.11 7.11 7.11 3.915 0 7.065-3.195 7.065-7.11V63.5h5.58v18.9c0 7.02-5.67 12.69-12.645 12.69zm27.859-.09V68.99h-10.26v-5.58h26.145v5.58h-10.305V95h-5.58zm33.51.09c-7.02 0-12.69-5.67-12.69-12.69V63.5h5.58v18.9c0 3.915 3.195 7.11 7.11 7.11 3.915 0 7.065-3.195 7.065-7.11V63.5h5.58v18.9c0 7.02-5.67 12.69-12.645 12.69zm37.894-13.77 7.29 13.68h-6.3l-3.105-5.94c-1.71-2.925-3.375-7.065-5.22-7.065h-3.69a3.707 3.707 0 0 0-3.69 3.69V95h-5.58v-9.315c0-5.13 4.14-9.27 9.27-9.27h7.515c4.905 0 4.905-7.425 0-7.425h-16.785v-5.58h16.785c10.17 0 12.87 14.085 3.51 17.91zM721.575 95H710.1c-8.685-.09-15.705-7.11-15.705-15.795 0-8.73 7.065-15.795 15.795-15.795h11.385v5.58H710.19c-5.625 0-10.215 4.545-10.215 10.215 0 5.625 4.59 10.215 10.215 10.215h11.385V95zm-4.32-13.005H706.77v-5.58h10.485v5.58zm37.216-18.9c8.865 0 16.11 7.2 16.11 16.11 0 8.865-7.245 16.11-16.11 16.11-8.91 0-16.11-7.245-16.11-16.11 0-8.91 7.2-16.11 16.11-16.11zm0 26.64c5.76 0 10.53-4.815 10.53-10.575 0-5.76-4.77-10.485-10.53-10.485s-10.53 4.725-10.53 10.485 4.77 10.575 10.53 10.575zm26.658-10.53V95h-5.58V79.205c0-8.73 7.02-15.795 15.93-15.795h11.385v5.58h-11.52a10.179 10.179 0 0 0-10.215 10.215zm17.415 2.79h-10.485v-5.58h10.485v5.58zM48.639 158H37.164c-8.685-.09-15.705-7.11-15.705-15.795 0-8.73 7.065-15.795 15.75-15.795h11.43v5.58H37.21c-5.625 0-10.17 4.545-10.17 10.215 0 5.625 4.545 10.215 10.17 10.215h11.43V158zm25.25-13.68 7.29 13.68h-6.3l-3.105-5.94c-1.71-2.925-3.375-7.065-5.22-7.065h-3.69a3.707 3.707 0 0 0-3.69 3.69V158h-5.58v-9.315c0-5.13 4.14-9.27 9.27-9.27h7.515c4.905 0 4.905-7.425 0-7.425H53.594v-5.58h16.785c10.17 0 12.87 14.085 3.51 17.91zM94.78 158v-13.14c-4.905-1.035-7.245-7.29-8.685-9.9l-4.455-8.505h6.3l3.105 5.895c1.665 2.925 3.375 7.11 5.22 7.11 4.275 0 3.645.63 7.83-7.11l3.105-5.895h6.3l-4.455 8.505c-1.485 2.61-3.78 8.865-8.685 9.9V158h-5.58zm23.653 0v-9.315c0-5.13 4.14-9.27 9.27-9.27h7.515c4.86 0 4.86-7.425 0-7.425h-16.785v-5.58h16.785c5.13 0 9.27 4.14 9.27 9.27a9.26 9.26 0 0 1-8.19 9.225v.09h-8.595a3.678 3.678 0 0 0-3.69 3.69V158h-5.58zm40.109 0v-26.01h-10.26v-5.58h26.145v5.58h-10.305V158h-5.58zm33.547-31.905c8.865 0 16.11 7.2 16.11 16.11 0 8.865-7.245 16.11-16.11 16.11-8.91 0-16.11-7.245-16.11-16.11 0-8.91 7.2-16.11 16.11-16.11zm0 26.64c5.76 0 10.53-4.815 10.53-10.575 0-5.76-4.77-10.485-10.53-10.485s-10.53 4.725-10.53 10.485 4.77 10.575 10.53 10.575zM239.205 158H227.73c-8.685-.09-15.705-7.11-15.705-15.795 0-8.73 7.065-15.795 15.75-15.795h11.43v5.58h-11.43c-5.625 0-10.17 4.545-10.17 10.215 0 5.625 4.545 10.215 10.17 10.215h11.43V158zm17.645.09c-7.02 0-12.69-5.67-12.69-12.69v-18.9h5.58v18.9c0 3.915 3.195 7.11 7.11 7.11 3.915 0 7.065-3.195 7.065-7.11v-18.9h5.58v18.9c0 7.02-5.67 12.69-12.645 12.69zm37.894-13.77 7.29 13.68h-6.3l-3.105-5.94c-1.71-2.925-3.375-7.065-5.22-7.065h-3.69a3.707 3.707 0 0 0-3.69 3.69V158h-5.58v-9.315c0-5.13 4.14-9.27 9.27-9.27h7.515c4.905 0 4.905-7.425 0-7.425h-16.785v-5.58h16.785c10.17 0 12.87 14.085 3.51 17.91zm32.53 0 7.29 13.68h-6.3l-3.105-5.94c-1.71-2.925-3.375-7.065-5.22-7.065h-3.69a3.707 3.707 0 0 0-3.69 3.69V158h-5.58v-9.315c0-5.13 4.14-9.27 9.27-9.27h7.515c4.905 0 4.905-7.425 0-7.425h-16.785v-5.58h16.785c10.17 0 12.87 14.085 3.51 17.91zM364.448 158h-11.475c-8.685-.09-15.705-7.11-15.705-15.795 0-8.73 7.065-15.795 15.795-15.795h11.385v5.58h-11.385c-5.625 0-10.215 4.545-10.215 10.215 0 5.625 4.59 10.215 10.215 10.215h11.385V158zm-4.32-13.005h-10.485v-5.58h10.485v5.58zm39.829-18.585v22.275c0 6.975-3.51 9.315-5.67 9.315-4.41 0-6.03-1.755-9.9-9.9l-4.5-9.45c-1.35-2.88-5.13-11.61-4.905-2.97V158h-5.58v-22.32c0-6.975 3.465-9.27 5.625-9.27 4.455 0 6.03 1.71 9.9 9.855l4.68 9.81c1.62 3.6 4.995 10.665 4.77 2.61V126.41h5.58zM432.101 158h-11.475c-8.685-.09-15.705-7.11-15.705-15.795 0-8.73 7.065-15.795 15.75-15.795h11.43v5.58h-11.43c-5.625 0-10.17 4.545-10.17 10.215 0 5.625 4.545 10.215 10.17 10.215h11.43V158zm18.094 0v-13.14c-4.905-1.035-7.245-7.29-8.685-9.9l-4.455-8.505h6.3l3.105 5.895c1.665 2.925 3.375 7.11 5.22 7.11 4.275 0 3.645.63 7.83-7.11l3.105-5.895h6.3l-4.455 8.505c-1.485 2.61-3.78 8.865-8.685 9.9V158h-5.58zm44.8-5.58h11.7V158h-11.7c-5.13 0-9.315-4.185-9.315-9.315v-22.23h5.58v22.23a3.726 3.726 0 0 0 3.735 3.735zm16.667 5.58v-31.545h5.58V158h-5.58zm26.623-31.905c15.705 0 22.05 20.25 9.27 29.25l3.465 6.21h-6.39l-2.115-3.825c-10.215 2.79-20.34-4.86-20.34-15.525 0-8.91 7.2-16.11 16.11-16.11zm0 26.64c.45 0 .945-.045 1.395-.09l-4.095-7.425h6.345l2.88 5.175c7.875-6.345 3.24-18.72-6.525-18.72-5.76 0-10.53 4.725-10.53 10.485s4.77 10.575 10.53 10.575zm32.626 5.355c-7.02 0-12.69-5.67-12.69-12.69v-18.9h5.58v18.9c0 3.915 3.195 7.11 7.11 7.11 3.915 0 7.065-3.195 7.065-7.11v-18.9h5.58v18.9c0 7.02-5.67 12.69-12.645 12.69zm17.599-.09v-31.545h5.58V158h-5.58zm22.034 0h-11.52v-5.58h11.385c5.67 0 10.215-4.59 10.215-10.215 0-5.67-4.545-10.215-10.215-10.215h-11.385v-5.58h11.385c8.73 0 15.795 7.065 15.795 15.795 0 8.685-7.02 15.705-15.66 15.795zm48.334-22.32V158h-5.58v-22.32c0-2.34-.36-3.87-1.89-3.87-2.565 0-4.86 3.96-5.895 5.625L632.193 158h-6.66l13.32-20.565c4.59-7.11 7.56-11.205 13.68-11.205 3.78 0 6.345 3.51 6.345 9.45zM674.08 158v-26.01h-10.26v-5.58h26.145v5.58H679.66V158h-5.58zm20.82 0v-31.545h5.58V158h-5.58zm25.481-31.905c8.865 0 16.11 7.2 16.11 16.11 0 8.865-7.245 16.11-16.11 16.11-8.91 0-16.11-7.245-16.11-16.11 0-8.91 7.2-16.11 16.11-16.11zm0 26.64c5.76 0 10.53-4.815 10.53-10.575 0-5.76-4.77-10.485-10.53-10.485s-10.53 4.725-10.53 10.485 4.77 10.575 10.53 10.575zm51.633-26.325v22.275c0 6.975-3.51 9.315-5.67 9.315-4.41 0-6.03-1.755-9.9-9.9l-4.5-9.45c-1.35-2.88-5.13-11.61-4.905-2.97V158h-5.58v-22.32c0-6.975 3.465-9.27 5.625-9.27 4.455 0 6.03 1.71 9.9 9.855l4.68 9.81c1.62 3.6 4.995 10.665 4.77 2.61V126.41h5.58zm4.963 28.845c0-3.69 5.58-3.69 5.58 0 0 3.645-5.58 3.69-5.58 0z" fill="url(#c)" fill-opacity=".8"/><defs><radialGradient id="b" cx="0" cy="0" r="1" gradientUnits="userSpaceOnUse" gradientTransform="matrix(-566.6666 228.2007 -165.62323 -411.2746 827 1.483)"><stop stop-color="#1BF8FD"/><stop offset=".338" stop-color="#1CF1FC" stop-opacity=".6"/><stop offset=".661" stop-color="#9F85F3" stop-opacity=".3"/><stop offset="1" stop-color="#fff" stop-opacity="0"/></radialGradient><radialGradient id="c" cx="0" cy="0" r="1" gradientUnits="userSpaceOnUse" gradientTransform="rotate(18.083 -101.825 -12.256) scale(339.037 201.005)"><stop stop-color="#3B10D8"/><stop offset="1" stop-color="#3B10D8" stop-opacity="0"/></radialGradient><linearGradient id="a" x1="-23" y1="-11" x2="114.349" y2="452.28" gradientUnits="userSpaceOnUse"><stop stop-color="#3B10D8"/><stop offset=".415" stop-color="#3F15D9"/><stop offset="1" stop-color="#FEF7F8"/></linearGradient></defs></svg>